<?xml version="1.0" encoding="UTF-8" standalone="no"?><!DOCTYPE svg PUBLIC "-//W3C//DTD SVG 1.1//EN" "http://www.w3.org/Graphics/SVG/1.1/DTD/svg11.dtd"><svg width="100%" height="100%" viewBox="0 0 25 32" version="1.1" xmlns="http://www.w3.org/2000/svg" xmlns:xlink="http://www.w3.org/1999/xlink" xml:space="preserve" xmlns:serif="http://www.serif.com/" style="fill-rule:evenodd;clip-rule:evenodd;stroke-linejoin:round;stroke-miterlimit:1.41421;"><g id="location"><path d="M12.002,17.746c3.309,0 6,-2.692 6,-6c0,-3.308 -2.691,-6 -6,-6c-3.309,0 -6,2.691 -6,6c0,3.309 2.691,6 6,6Zm0,-11c2.758,0 5,2.242 5,5c0,2.758 -2.242,5 -5,5c-2.758,0 -5,-2.242 -5,-5c0,-2.758 2.242,-5 5,-5Z" style="fill:#ffc032;"/><path d="M12,0c-6.618,0 -12,5.316 -12,12.001c0,7 6.001,14.161 10.376,19.194c0.016,0.02 0.718,0.805 1.586,0.805c0.002,0 0.073,0 0.077,0c0.867,0 1.57,-0.785 1.586,-0.805c4.377,-5.033 10.377,-12.193 10.377,-19.194c0,-6.685 -5.383,-12.001 -12.002,-12.001Zm0.117,29.883c-0.021,0.02 -0.082,0.064 -0.135,0.098c-0.01,-0.027 -0.084,-0.086 -0.129,-0.133c-3.665,-4.217 -9.853,-11.334 -9.853,-17.847c0,-5.514 4.487,-10.001 10,-10.001c5.516,0 10.002,4.487 10.002,10.002c0,6.512 -6.188,13.629 -9.885,17.881Z" style="fill:#ffc032;"/></g></svg>